<mxfile host="app.diagrams.net" modified="2021-10-22T06:40:32.859Z" agent="5.0 (Windows NT 10.0; Win64; x64) AppleWebKit/537.36 (KHTML, like Gecko) Chrome/94.0.4606.81 Safari/537.36 Edg/94.0.992.50" etag="hQYfs1CN4pvs2gBxQ-N0" version="15.5.8" type="github">
  <diagram id="dATR9540MmaAx5iBkg-Q" name="Page-1">
    <mxGraphModel dx="1038" dy="579" grid="1" gridSize="10" guides="1" tooltips="1" connect="1" arrows="1" fold="1" page="1" pageScale="1" pageWidth="827" pageHeight="1169" math="0" shadow="0">
      <root>
        <mxCell id="0" />
        <mxCell id="1" parent="0" />
        <mxCell id="6xGbaxBDM6KBhIXa-qCT-4" style="edgeStyle=none;rounded=0;orthogonalLoop=1;jettySize=auto;html=1;entryX=0.5;entryY=0;entryDx=0;entryDy=0;" parent="1" source="6xGbaxBDM6KBhIXa-qCT-1" target="6xGbaxBDM6KBhIXa-qCT-2" edge="1">
          <mxGeometry relative="1" as="geometry" />
        </mxCell>
        <mxCell id="6xGbaxBDM6KBhIXa-qCT-1" value="" style="rounded=0;whiteSpace=wrap;html=1;" parent="1" vertex="1">
          <mxGeometry x="294" y="60" width="120" height="60" as="geometry" />
        </mxCell>
        <mxCell id="6xGbaxBDM6KBhIXa-qCT-2" value="" style="rounded=1;whiteSpace=wrap;html=1;" parent="1" vertex="1">
          <mxGeometry x="294" y="180" width="120" height="50" as="geometry" />
        </mxCell>
        <mxCell id="6xGbaxBDM6KBhIXa-qCT-3" value="" style="shape=flexArrow;endArrow=classic;html=1;rounded=0;endWidth=9;endSize=9.73;" parent="1" edge="1">
          <mxGeometry width="50" height="50" relative="1" as="geometry">
            <mxPoint x="170" y="220" as="sourcePoint" />
            <mxPoint x="170.5" y="260" as="targetPoint" />
          </mxGeometry>
        </mxCell>
        <mxCell id="6xGbaxBDM6KBhIXa-qCT-5" value="" style="whiteSpace=wrap;html=1;" parent="1" vertex="1">
          <mxGeometry x="580" y="130" width="120" height="60" as="geometry" />
        </mxCell>
      </root>
    </mxGraphModel>
  </diagram>
</mxfile>
